<svg xmlns="http://www.w3.org/2000/svg" version="1.1" xmlns:xlink="http://www.w3.org/1999/xlink" xmlns:svgjs="http://svgjs.dev/svgjs" width="1000" height="361" viewBox="0 0 1000 361"><g transform="matrix(1,0,0,1,-0.6060606060606233,0.16260421977756323)"><svg viewBox="0 0 396 143" data-background-color="#ffffff" preserveAspectRatio="xMidYMid meet" height="361" width="1000" xmlns="http://www.w3.org/2000/svg" xmlns:xlink="http://www.w3.org/1999/xlink"><g id="tight-bounds" transform="matrix(1,0,0,1,0.2400000000000091,-0.06441108982878063)"><svg viewBox="0 0 395.52 143.12882217965756" height="143.12882217965756" width="395.52"><g><svg viewBox="0 0 581.1099654530757 210.28920133535655" height="143.12882217965756" width="395.52"><g transform="matrix(1,0,0,1,185.58996545307568,64.98241553869498)"><svg viewBox="0 0 395.52 80.32437025796659" height="80.32437025796659" width="395.52"><g><svg viewBox="0 0 395.52 80.32437025796659" height="80.32437025796659" width="395.52"><g><svg viewBox="0 0 395.52 80.32437025796659" height="80.32437025796659" width="395.52"><g transform="matrix(1,0,0,1,0,0)"><svg width="395.52" viewBox="2.85 -38.75 197.68 40.15" height="80.32437025796659" data-palette-color="#0718c4"><path d="M13.6-3Q13.2-1.25 12.38-0.3 11.55 0.65 9.7 0.65L9.7 0.65Q8.15 0.65 7.43 0.13 6.7-0.4 6.7-1.65L6.7-1.65Q6.7-2.2 6.85-2.7L6.85-2.7 12.95-26.9Q12.9-26.9 9.7-26.55L9.7-26.55Q5.85-26.25 4.9-26.05L4.9-26.05Q3.9-26.4 3.38-27.13 2.85-27.85 2.85-28.85L2.85-28.85Q2.85-29.65 3.43-30.38 4-31.1 4.8-31.45L4.8-31.45Q7.3-31.95 11.8-32.3 16.3-32.65 23.35-33.05L23.35-33.05Q26.95-33.2 28.2-33.35L28.2-33.35Q29-33 29.58-32.27 30.15-31.55 30.15-30.75L30.15-30.75Q30.15-29.85 29.25-29 28.35-28.15 27.2-27.8L27.2-27.8 18.45-27.35Q19-27.15 19-26L19-26Q19-25.4 18.9-25.1L18.9-25.1Q18.05-21.3 16.57-15.25 15.1-9.2 14.6-7.05L14.6-7.05Q14.3-5.8 14.05-4.8 13.8-3.8 13.6-3L13.6-3ZM34.55-29.7Q34.55-31.25 35.52-32.45 36.5-33.65 38.25-33.65L38.25-33.65Q40.1-33.65 41.47-32.5 42.85-31.35 42.85-29.9L42.85-29.9Q42.85-28.45 41.45-27.4 40.05-26.35 38.2-26.35L38.2-26.35Q36.4-26.35 35.47-27.28 34.55-28.2 34.55-29.7L34.55-29.7ZM39.8-20.85Q37.15-10.05 35.75-4.6L35.75-4.6Q35.55-3.8 35.55-2.85L35.55-2.85 35.6-1.45Q35.6-0.6 35.07-0.25 34.55 0.1 32.85 0.15L32.85 0.15Q31.2 0.15 30.35-0.2 29.5-0.55 29.5-1.7L29.5-1.7Q29.5-2.25 30.77-7.55 32.05-12.85 34.25-21.35L34.25-21.35 33.1-22.85Q32.95-23 32.95-23.2L32.95-23.2Q32.95-23.7 34.05-24.03 35.15-24.35 37.1-24.35L37.1-24.35Q38.8-24.35 39.27-23.38 39.75-22.4 39.8-20.85L39.8-20.85ZM53.09-18.1L49.95-5.5Q49.95-4.35 50.55-3.68 51.14-3 52.24-3L52.24-3Q53.74-3 54.72-3.88 55.7-4.75 56.8-6.35L56.8-6.35Q57.59-7.5 58.09-8 58.59-8.5 59.25-8.5L59.25-8.5Q60.55-8.5 61.09-8.18 61.64-7.85 61.64-6.85L61.64-6.85Q61.64-6.4 61.55-5.78 61.45-5.15 61.3-4.85L61.3-4.85Q60.09-2.3 57.37-0.45 54.64 1.4 51.2 1.4L51.2 1.4Q47.74 1.4 45.99-0.28 44.24-1.95 44.24-5.05L44.24-5.05Q44.24-5.5 44.7-7.4 45.14-9.3 45.84-11.95L45.84-11.95 47.24-17.65 44.2-17.4Q43.59-17.4 43.3-17.85 42.99-18.3 42.99-18.95L42.99-18.95Q42.99-20.2 43.89-21.45L43.89-21.45Q43.99-21.6 44.89-21.75 45.8-21.9 47.09-22.05L47.09-22.05 48.45-22.2 50.14-29.5Q50.64-30.8 51.67-31.53 52.7-32.25 53.59-32.25L53.59-32.25Q54.59-32.25 55.3-31.65 55.99-31.05 56.05-30.25L56.05-30.25 54.24-22.75Q56.2-23 57.87-23.18 59.55-23.35 60.5-23.35L60.5-23.35Q62.39-23.35 62.39-21.15L62.39-21.15Q62.39-20.3 61.67-19.63 60.95-18.95 60.09-18.8L60.09-18.8 53.09-18.1ZM84.39-0.15Q84.19 0.7 83.49 1.03 82.79 1.35 81.64 1.35L81.64 1.35Q78.19 1.35 78.19-0.2L78.19-0.2 78.49-2.1Q77.09-1.05 75.19 0 73.29 1.05 72.04 1.05L72.04 1.05Q64.64 1.05 64.64-3.8L64.64-3.8Q64.64-12.05 69.59-21.7L69.59-21.7Q70.19-22.85 70.87-23.35 71.54-23.85 73.19-23.85L73.19-23.85Q74.94-23.85 75.82-23.38 76.69-22.9 76.69-22.25L76.69-22.25Q76.69-22.1 76.14-21.35L76.14-21.35Q75.59-20.7 75.19-20.05L75.19-20.05Q70.49-12.2 70.49-4.75L70.49-4.75Q70.49-4.1 70.99-3.6 71.49-3.1 71.89-3.1L71.89-3.1Q72.99-3.1 75.62-4.15 78.24-5.2 79.64-6.3L79.64-6.3 80.64-10.35Q82.44-17.6 82.89-19.25L82.89-19.25Q83.44-21.25 84.32-22.53 85.19-23.8 87.09-23.8L87.09-23.8Q89.74-23.8 89.74-22.2L89.74-22.2Q89.74-21.95 89.62-21.58 89.49-21.2 89.44-20.95L89.44-20.95 87.44-12.85Q85.04-3.2 84.39-0.15L84.39-0.15ZM107.74-19.35Q107.14-19.65 106.24-19.65L106.24-19.65Q103.99-19.65 101.74-18.75 99.49-17.85 99.49-16.45L99.49-16.45Q99.49-15.45 100.39-14.85 101.29-14.25 103.24-13.5L103.24-13.5Q105.34-12.65 106.64-11.9 107.94-11.15 108.92-9.73 109.89-8.3 109.89-6.1L109.89-6.1Q109.89-2.5 106.92-0.58 103.94 1.35 98.94 1.35L98.94 1.35Q96.49 1.35 94.39 0.6 92.29-0.15 91.07-1.33 89.84-2.5 89.74-3.65L89.74-3.65Q89.74-4.85 90.79-5.63 91.84-6.4 93.74-6.65L93.74-6.65Q93.79-5.65 94.79-4.78 95.79-3.9 97.17-3.38 98.54-2.85 99.54-2.85L99.54-2.85Q101.24-2.85 102.64-3.78 104.04-4.7 104.04-5.95L104.04-5.95Q104.04-8.25 99.59-9.6L99.59-9.6Q96.74-10.45 95.22-12.3 93.69-14.15 93.69-16.2L93.69-16.2Q93.69-20.25 97.37-22.03 101.04-23.8 106.74-23.8L106.74-23.8Q109.94-23.8 111.69-23.05 113.44-22.3 113.44-20.45L113.44-20.45Q113.44-19.2 112.52-18.25 111.59-17.3 109.89-17.3L109.89-17.3Q108.39-17.3 107.97-17.53 107.54-17.75 107.49-18.3L107.49-18.3Q107.49-18.8 107.74-19.35L107.74-19.35ZM147.19-6.35Q149.14-5.5 149.14-4.05L149.14-4.05Q149.14-3.15 148.24-2.3 147.34-1.45 146.19-1.1L146.19-1.1Q143.44-0.8 142.29-0.75L142.29-0.75Q135.59-0.2 132.84 0.3L132.84 0.3Q132.39 0.6 130.94 0.6L130.94 0.6Q129.54 0.6 128.46-0.7 127.39-2 127.39-3.4L127.39-3.4Q127.39-3.95 127.54-4.45L127.54-4.45 133.94-29.75Q134.49-31.95 135.11-32.68 135.74-33.4 137.39-33.4L137.39-33.4Q138.74-33.4 139.71-33.1 140.69-32.8 140.74-32.2L140.74-32.2Q140.74-30.8 134.29-5L134.29-5Q138.69-5.75 145.49-6.2L145.49-6.2 147.19-6.35ZM160.83-18.1L157.68-5.5Q157.68-4.35 158.28-3.68 158.88-3 159.98-3L159.98-3Q161.48-3 162.46-3.88 163.43-4.75 164.53-6.35L164.53-6.35Q165.33-7.5 165.83-8 166.33-8.5 166.98-8.5L166.98-8.5Q168.28-8.5 168.83-8.18 169.38-7.85 169.38-6.85L169.38-6.85Q169.38-6.4 169.28-5.78 169.18-5.15 169.03-4.85L169.03-4.85Q167.83-2.3 165.11-0.45 162.38 1.4 158.93 1.4L158.93 1.4Q155.48 1.4 153.73-0.28 151.98-1.95 151.98-5.05L151.98-5.05Q151.98-5.5 152.43-7.4 152.88-9.3 153.58-11.95L153.58-11.95 154.98-17.65 151.93-17.4Q151.33-17.4 151.03-17.85 150.73-18.3 150.73-18.95L150.73-18.95Q150.73-20.2 151.63-21.45L151.63-21.45Q151.73-21.6 152.63-21.75 153.53-21.9 154.83-22.05L154.83-22.05 156.18-22.2 157.88-29.5Q158.38-30.8 159.41-31.53 160.43-32.25 161.33-32.25L161.33-32.25Q162.33-32.25 163.03-31.65 163.73-31.05 163.78-30.25L163.78-30.25 161.98-22.75Q163.93-23 165.61-23.18 167.28-23.35 168.23-23.35L168.23-23.35Q170.13-23.35 170.13-21.15L170.13-21.15Q170.13-20.3 169.41-19.63 168.68-18.95 167.83-18.8L167.83-18.8 160.83-18.1ZM194.28-37.05Q194.48-37.8 195.46-38.27 196.43-38.75 197.53-38.75L197.53-38.75Q198.43-38.75 199.48-38.35 200.53-37.95 200.53-37.2L200.53-37.2 197.38-24.9Q193.23-8.75 192.53-5.2L192.53-5.2Q192.23-3.7 192.23-2.9L192.23-2.9Q192.23-1.55 192.53-0.25L192.53-0.25Q192.43 0.05 191.75 0.35 191.08 0.65 190.53 0.65L190.53 0.65Q189.53 0.65 188.33 0.4 187.13 0.15 186.83-0.15L186.83-0.15Q186.38-0.55 186.38-1.75L186.38-1.75Q186.38-2.65 186.58-3.45L186.58-3.45Q185.53-1.95 183.41-0.98 181.28 0 179.98 0L179.98 0Q172.33 0 172.33-8.25L172.33-8.25Q172.33-11.85 173.96-15.45 175.58-19.05 178.61-21.4 181.63-23.75 185.63-23.75L185.63-23.75Q186.73-23.75 188.08-22.88 189.43-22 190.28-20.9L190.28-20.9Q191.38-25.55 192.23-28.65L192.23-28.65Q192.63-30.3 193.16-32.43 193.68-34.55 194.28-37.05L194.28-37.05ZM189.18-16.25Q188.88-17.35 187.75-18.28 186.63-19.2 185.93-19.2L185.93-19.2Q183.63-19.2 181.63-17.7 179.63-16.2 178.46-13.8 177.28-11.4 177.28-8.85L177.28-8.85Q177.28-6.95 177.98-5.45 178.68-3.95 180.13-3.95L180.13-3.95Q181.38-3.95 183.06-4.78 184.73-5.6 186.03-6.93 187.33-8.25 187.63-9.65L187.63-9.65 189.18-16.25Z" opacity="1" transform="matrix(1,0,0,1,0,0)" fill="#0718c4" class="undefined-text-0" data-fill-palette-color="primary" id="text-0"></path></svg></g></svg></g></svg></g></svg></g><g><svg viewBox="0 0 166.62730942005595 210.28920133535655" height="210.28920133535655" width="166.62730942005595"><g><svg xmlns="http://www.w3.org/2000/svg" xmlns:xlink="http://www.w3.org/1999/xlink" version="1.1" x="0" y="0" viewBox="-250.70000000000002 140.98709328582086 63.39999999999998 80.01290671417914" enable-background="new -269 131 100 100" xml:space="preserve" height="210.28920133535655" width="166.62730942005595" class="icon-icon-0" data-fill-palette-color="accent" id="icon-0"><path d="M-200.1 163.7l-1-0.8c-1.2-1-3.1-0.6-3.8 0.8-0.3 0.7-0.6 7.7-0.6 8.9 0 0.2 0 0.6 0 0.7 0 1-0.9 1.8-1.9 1.6-0.8-0.1-1.4-0.9-1.4-1.7-0.1-12-3.7-20.4-10.5-26.7-4.1-3.8-9-7.2-10.5-4.6-0.4 0.7 0.2 2.2 0.9 4.1 1.4 4.3-2.9 11.2-9 18.1-5.7 6.5-12.8 14.5-12.8 26.4 0 16 15.1 30.5 31.7 30.5 16.6 0 31.7-14.5 31.7-30.5C-187.3 180.4-192.1 170.4-200.1 163.7zM-219 215.2c-7.2 0-13.1-5.9-13.1-13.1 0-3.6 1.4-6.8 3.8-9.2l7.2-8.6c1.1-1.3 3.2-1.3 4.3 0l7.2 8.6c2.3 2.4 3.8 5.6 3.8 9.2C-205.9 209.3-211.8 215.2-219 215.2z" fill="#0718c4" data-fill-palette-color="accent"></path></svg></g></svg></g></svg></g><defs></defs></svg><rect width="395.52" height="143.12882217965756" fill="none" stroke="none" visibility="hidden"></rect></g></svg></g></svg>